# This file uses centimeters as units for non-parametric coordinates.

mtllib box.mtl
g default
v -5.000000 -5.000000 5.000000
v 5.000000 -5.000000 5.000000
v 5.000000 5.000000 5.000000
v -5.000000 5.000000 5.000000
v -5.000000 5.000000 -5.000000
v 5.000000 5.000000 -5.000000
v 5.000000 -5.000000 -5.000000
v -5.000000 -5.000000 -5.000000
v -5.000000 -5.000000 5.000000
v 5.000000 -5.000000 5.000000
v -5.000000 5.000000 5.000000
v 5.000000 5.000000 5.000000
v -5.000000 5.000000 -5.000000
v 5.000000 5.000000 -5.000000
v -5.000000 -5.000000 -5.000000
v 5.000000 -5.000000 -5.000000
v 5.000000 5.000000 5.000000
v 5.000000 5.000000 -5.000000
v -5.000000 5.000000 -5.000000
v -5.000000 5.000000 5.000000
v 5.000000 -5.000000 -5.000000
v 5.000000 -5.000000 5.000000
v -5.000000 -5.000000 5.000000
v -5.000000 -5.000000 -5.000000
vt 0.003972 0.005860
vt 0.996042 0.005860
vt 0.003972 0.997930
vt 0.996042 0.997930
vt 0.003972 0.005859
vt 0.996042 0.005859
vt 0.003972 0.997930
vt 0.996042 0.997930
vt 0.003972 0.997910
vt 0.003972 0.005840
vt 0.996042 0.997910
vt 0.996042 0.005840
vt 0.003972 0.997910
vt 0.003972 0.005840
vt 0.996042 0.997910
vt 0.996042 0.005840
vt 0.003972 0.005860
vt 0.996042 0.005860
vt 0.003972 0.997930
vt 0.996042 0.997930
vt 0.003972 0.997910
vt 0.003972 0.005840
vt 0.996042 0.997910
vt 0.996042 0.005840
vn 0.000000 0.000000 1.000000
vn 0.000000 0.000000 1.000000
vn 0.000000 0.000000 1.000000
vn 0.000000 0.000000 1.000000
vn 0.000000 0.000000 1.000000
vn 0.000000 0.000000 1.000000
vn 0.000000 0.000000 -1.000000
vn 0.000000 0.000000 -1.000000
vn 0.000000 0.000000 -1.000000
vn 0.000000 0.000000 -1.000000
vn 0.000000 0.000000 -1.000000
vn 0.000000 0.000000 -1.000000
vn 1.000000 0.000000 0.000000
vn 1.000000 0.000000 0.000000
vn 1.000000 0.000000 0.000000
vn 1.000000 0.000000 0.000000
vn 1.000000 0.000000 0.000000
vn 1.000000 0.000000 0.000000
vn -1.000000 0.000000 0.000000
vn -1.000000 0.000000 0.000000
vn -1.000000 0.000000 0.000000
vn -1.000000 0.000000 0.000000
vn -1.000000 0.000000 0.000000
vn -1.000000 0.000000 0.000000
vn 0.000000 1.000000 0.000000
vn 0.000000 1.000000 0.000000
vn 0.000000 1.000000 0.000000
vn 0.000000 1.000000 0.000000
vn 0.000000 1.000000 0.000000
vn 0.000000 1.000000 0.000000
vn 0.000000 -1.000000 0.000000
vn 0.000000 -1.000000 0.000000
vn 0.000000 -1.000000 0.000000
vn 0.000000 -1.000000 0.000000
vn 0.000000 -1.000000 0.000000
vn 0.000000 -1.000000 0.000000
s off
g polySurface1
usemtl initialShadingGroup
f 1/1/1 2/2/2 4/3/3
f 4/3/4 2/2/5 3/4/6
f 5/5/7 6/6/8 8/7/9
f 8/7/10 6/6/11 7/8/12
f 10/9/13 16/10/14 12/11/15
f 12/11/16 16/10/17 14/12/18
f 15/13/19 9/14/20 13/15/21
f 13/15/22 9/14/23 11/16/24
f 20/17/25 17/18/26 19/19/27
f 19/19/28 17/18/29 18/20/30
f 24/21/31 21/22/32 23/23/33
f 23/23/34 21/22/35 22/24/36
