# This file uses centimeters as units for non-parametric coordinates.

mtllib pointL.mtl
g default
v 0.146576 -0.461940 -0.122992
v 0.033226 -0.461940 -0.188435
v -0.095671 -0.461940 -0.165707
v -0.179802 -0.461940 -0.065443
v -0.179802 -0.461940 0.065443
v -0.095671 -0.461940 0.165707
v 0.033226 -0.461940 0.188435
v 0.146576 -0.461940 0.122992
v 0.191342 -0.461940 0.000000
v 0.270838 -0.353553 -0.227260
v 0.061394 -0.353553 -0.348182
v -0.176777 -0.353553 -0.306186
v -0.332232 -0.353553 -0.120922
v -0.332232 -0.353553 0.120922
v -0.176777 -0.353553 0.306186
v 0.061394 -0.353553 0.348182
v 0.270838 -0.353553 0.227260
v 0.353553 -0.353553 0.000000
v 0.353866 -0.191342 -0.296929
v 0.080215 -0.191342 -0.454922
v -0.230970 -0.191342 -0.400052
v -0.434081 -0.191342 -0.157993
v -0.434081 -0.191342 0.157993
v -0.230970 -0.191342 0.400052
v 0.080215 -0.191342 0.454922
v 0.353866 -0.191342 0.296929
v 0.461940 -0.191342 0.000000
v 0.383022 0.000000 -0.321394
v 0.086824 0.000000 -0.492404
v -0.250000 0.000000 -0.433013
v -0.469846 0.000000 -0.171010
v -0.469846 0.000000 0.171010
v -0.250000 0.000000 0.433013
v 0.086824 0.000000 0.492404
v 0.383022 0.000000 0.321394
v 0.500000 0.000000 0.000000
v 0.353866 0.191342 -0.296929
v 0.080215 0.191342 -0.454922
v -0.230970 0.191342 -0.400052
v -0.434081 0.191342 -0.157993
v -0.434081 0.191342 0.157993
v -0.230970 0.191342 0.400052
v 0.080215 0.191342 0.454922
v 0.353866 0.191342 0.296929
v 0.461940 0.191342 0.000000
v 0.270838 0.353553 -0.227260
v 0.061394 0.353553 -0.348182
v -0.176777 0.353553 -0.306186
v -0.332232 0.353553 -0.120922
v -0.332232 0.353553 0.120922
v -0.176777 0.353553 0.306186
v 0.061394 0.353553 0.348182
v 0.270838 0.353553 0.227260
v 0.353553 0.353553 0.000000
v 0.146576 0.461940 -0.122992
v 0.033226 0.461940 -0.188435
v -0.095671 0.461940 -0.165707
v -0.179802 0.461940 -0.065443
v -0.179802 0.461940 0.065443
v -0.095671 0.461940 0.165707
v 0.033226 0.461940 0.188435
v 0.146576 0.461940 0.122992
v 0.191342 0.461940 0.000000
v 0.000000 -0.500000 0.000000
v 0.000000 0.500000 0.000000
vt 0.000000 0.125000
vt 0.111111 0.125000
vt 0.222222 0.125000
vt 0.333333 0.125000
vt 0.444444 0.125000
vt 0.555556 0.125000
vt 0.666667 0.125000
vt 0.777778 0.125000
vt 0.888889 0.125000
vt 1.000000 0.125000
vt 0.000000 0.250000
vt 0.111111 0.250000
vt 0.222222 0.250000
vt 0.333333 0.250000
vt 0.444444 0.250000
vt 0.555556 0.250000
vt 0.666667 0.250000
vt 0.777778 0.250000
vt 0.888889 0.250000
vt 1.000000 0.250000
vt 0.000000 0.375000
vt 0.111111 0.375000
vt 0.222222 0.375000
vt 0.333333 0.375000
vt 0.444444 0.375000
vt 0.555556 0.375000
vt 0.666667 0.375000
vt 0.777778 0.375000
vt 0.888889 0.375000
vt 1.000000 0.375000
vt 0.000000 0.500000
vt 0.111111 0.500000
vt 0.222222 0.500000
vt 0.333333 0.500000
vt 0.444444 0.500000
vt 0.555556 0.500000
vt 0.666667 0.500000
vt 0.777778 0.500000
vt 0.888889 0.500000
vt 1.000000 0.500000
vt 0.000000 0.625000
vt 0.111111 0.625000
vt 0.222222 0.625000
vt 0.333333 0.625000
vt 0.444444 0.625000
vt 0.555556 0.625000
vt 0.666667 0.625000
vt 0.777778 0.625000
vt 0.888889 0.625000
vt 1.000000 0.625000
vt 0.000000 0.750000
vt 0.111111 0.750000
vt 0.222222 0.750000
vt 0.333333 0.750000
vt 0.444444 0.750000
vt 0.555556 0.750000
vt 0.666667 0.750000
vt 0.777778 0.750000
vt 0.888889 0.750000
vt 1.000000 0.750000
vt 0.000000 0.875000
vt 0.111111 0.875000
vt 0.222222 0.875000
vt 0.333333 0.875000
vt 0.444444 0.875000
vt 0.555556 0.875000
vt 0.666667 0.875000
vt 0.777778 0.875000
vt 0.888889 0.875000
vt 1.000000 0.875000
vt 0.055556 0.000000
vt 0.166667 0.000000
vt 0.277778 0.000000
vt 0.388889 0.000000
vt 0.500000 0.000000
vt 0.611111 0.000000
vt 0.722222 0.000000
vt 0.833333 0.000000
vt 0.944444 0.000000
vt 0.055556 1.000000
vt 0.166667 1.000000
vt 0.277778 1.000000
vt 0.388889 1.000000
vt 0.500000 1.000000
vt 0.611111 1.000000
vt 0.722222 1.000000
vt 0.833333 1.000000
vt 0.944444 1.000000
vn 0.289748 -0.814975 -0.501859
vn 0.289748 -0.814975 -0.501859
vn 0.289748 -0.814975 -0.501859
vn 0.289748 -0.814975 -0.501859
vn -0.100628 -0.814975 -0.570693
vn -0.100628 -0.814975 -0.570693
vn -0.100628 -0.814975 -0.570693
vn -0.100629 -0.814975 -0.570693
vn -0.443920 -0.814975 -0.372493
vn -0.443920 -0.814975 -0.372493
vn -0.443920 -0.814975 -0.372493
vn -0.443920 -0.814975 -0.372493
vn -0.579497 -0.814975 -0.000000
vn -0.579497 -0.814975 -0.000000
vn -0.579497 -0.814975 -0.000000
vn -0.579497 -0.814975 -0.000000
vn -0.443920 -0.814975 0.372493
vn -0.443920 -0.814975 0.372493
vn -0.443920 -0.814975 0.372493
vn -0.443920 -0.814975 0.372493
vn -0.100629 -0.814975 0.570693
vn -0.100629 -0.814975 0.570693
vn -0.100629 -0.814975 0.570693
vn -0.100629 -0.814975 0.570693
vn 0.289748 -0.814975 0.501859
vn 0.289748 -0.814975 0.501859
vn 0.289748 -0.814975 0.501859
vn 0.289748 -0.814975 0.501859
vn 0.544549 -0.814975 0.198199
vn 0.544549 -0.814975 0.198199
vn 0.544549 -0.814975 0.198199
vn 0.544549 -0.814975 0.198199
vn 0.544549 -0.814975 -0.198199
vn 0.544549 -0.814975 -0.198199
vn 0.544549 -0.814975 -0.198199
vn 0.544549 -0.814975 -0.198199
vn 0.423450 -0.531753 -0.733436
vn 0.423450 -0.531753 -0.733436
vn 0.423450 -0.531753 -0.733436
vn 0.423450 -0.531753 -0.733436
vn -0.147062 -0.531753 -0.834033
vn -0.147062 -0.531753 -0.834033
vn -0.147062 -0.531753 -0.834033
vn -0.147062 -0.531753 -0.834033
vn -0.648762 -0.531753 -0.544376
vn -0.648762 -0.531753 -0.544376
vn -0.648762 -0.531753 -0.544376
vn -0.648762 -0.531753 -0.544376
vn -0.846899 -0.531754 -0.000000
vn -0.846899 -0.531754 -0.000000
vn -0.846899 -0.531753 -0.000000
vn -0.846899 -0.531753 -0.000000
vn -0.648763 -0.531753 0.544376
vn -0.648763 -0.531753 0.544376
vn -0.648763 -0.531753 0.544376
vn -0.648763 -0.531753 0.544376
vn -0.147063 -0.531753 0.834033
vn -0.147063 -0.531753 0.834033
vn -0.147063 -0.531753 0.834033
vn -0.147063 -0.531753 0.834033
vn 0.423450 -0.531753 0.733436
vn 0.423450 -0.531753 0.733436
vn 0.423450 -0.531753 0.733436
vn 0.423450 -0.531753 0.733436
vn 0.795825 -0.531753 0.289657
vn 0.795825 -0.531753 0.289657
vn 0.795825 -0.531753 0.289657
vn 0.795825 -0.531753 0.289657
vn 0.795825 -0.531753 -0.289656
vn 0.795825 -0.531753 -0.289656
vn 0.795825 -0.531753 -0.289656
vn 0.795825 -0.531753 -0.289656
vn 0.491488 -0.183735 -0.851282
vn 0.491488 -0.183735 -0.851282
vn 0.491488 -0.183735 -0.851282
vn 0.491488 -0.183735 -0.851282
vn -0.170692 -0.183735 -0.968042
vn -0.170692 -0.183735 -0.968042
vn -0.170692 -0.183735 -0.968042
vn -0.170692 -0.183735 -0.968042
vn -0.753003 -0.183735 -0.631845
vn -0.753003 -0.183735 -0.631845
vn -0.753003 -0.183734 -0.631845
vn -0.753003 -0.183734 -0.631845
vn -0.982976 -0.183734 -0.000000
vn -0.982976 -0.183734 -0.000000
vn -0.982976 -0.183734 -0.000000
vn -0.982976 -0.183734 -0.000000
vn -0.753003 -0.183734 0.631845
vn -0.753003 -0.183734 0.631845
vn -0.753003 -0.183734 0.631845
vn -0.753003 -0.183734 0.631845
vn -0.170692 -0.183734 0.968042
vn -0.170692 -0.183734 0.968042
vn -0.170692 -0.183734 0.968042
vn -0.170692 -0.183734 0.968042
vn 0.491488 -0.183734 0.851282
vn 0.491488 -0.183734 0.851282
vn 0.491488 -0.183734 0.851282
vn 0.491488 -0.183734 0.851282
vn 0.923695 -0.183734 0.336198
vn 0.923695 -0.183734 0.336198
vn 0.923695 -0.183734 0.336198
vn 0.923695 -0.183734 0.336198
vn 0.923695 -0.183734 -0.336197
vn 0.923695 -0.183734 -0.336197
vn 0.923695 -0.183734 -0.336197
vn 0.923695 -0.183734 -0.336197
vn 0.491488 0.183734 -0.851282
vn 0.491488 0.183734 -0.851282
vn 0.491488 0.183734 -0.851282
vn 0.491488 0.183734 -0.851282
vn -0.170692 0.183735 -0.968042
vn -0.170692 0.183735 -0.968042
vn -0.170692 0.183735 -0.968042
vn -0.170692 0.183735 -0.968042
vn -0.753003 0.183734 -0.631845
vn -0.753003 0.183734 -0.631845
vn -0.753003 0.183735 -0.631845
vn -0.753003 0.183735 -0.631845
vn -0.982976 0.183734 -0.000000
vn -0.982976 0.183734 -0.000000
vn -0.982976 0.183734 -0.000000
vn -0.982976 0.183734 -0.000000
vn -0.753003 0.183734 0.631845
vn -0.753003 0.183734 0.631845
vn -0.753003 0.183734 0.631845
vn -0.753003 0.183734 0.631845
vn -0.170692 0.183734 0.968042
vn -0.170692 0.183734 0.968042
vn -0.170692 0.183734 0.968042
vn -0.170692 0.183734 0.968042
vn 0.491488 0.183734 0.851282
vn 0.491488 0.183734 0.851282
vn 0.491488 0.183735 0.851282
vn 0.491488 0.183735 0.851282
vn 0.923695 0.183734 0.336198
vn 0.923695 0.183734 0.336198
vn 0.923695 0.183734 0.336198
vn 0.923695 0.183734 0.336198
vn 0.923695 0.183734 -0.336197
vn 0.923695 0.183734 -0.336197
vn 0.923695 0.183734 -0.336197
vn 0.923695 0.183734 -0.336197
vn 0.423450 0.531753 -0.733436
vn 0.423450 0.531753 -0.733436
vn 0.423450 0.531753 -0.733436
vn 0.423450 0.531753 -0.733436
vn -0.147062 0.531753 -0.834033
vn -0.147062 0.531753 -0.834033
vn -0.147062 0.531753 -0.834033
vn -0.147062 0.531753 -0.834033
vn -0.648762 0.531753 -0.544376
vn -0.648762 0.531753 -0.544376
vn -0.648762 0.531753 -0.544376
vn -0.648762 0.531753 -0.544376
vn -0.846899 0.531753 -0.000000
vn -0.846899 0.531753 -0.000000
vn -0.846899 0.531754 -0.000000
vn -0.846899 0.531754 -0.000000
vn -0.648763 0.531753 0.544376
vn -0.648763 0.531753 0.544376
vn -0.648763 0.531753 0.544376
vn -0.648763 0.531753 0.544376
vn -0.147063 0.531753 0.834033
vn -0.147063 0.531753 0.834033
vn -0.147063 0.531753 0.834033
vn -0.147063 0.531753 0.834033
vn 0.423450 0.531753 0.733436
vn 0.423450 0.531753 0.733436
vn 0.423450 0.531753 0.733436
vn 0.423450 0.531753 0.733436
vn 0.795825 0.531753 0.289657
vn 0.795825 0.531753 0.289657
vn 0.795825 0.531753 0.289657
vn 0.795825 0.531753 0.289657
vn 0.795825 0.531753 -0.289656
vn 0.795825 0.531753 -0.289656
vn 0.795825 0.531753 -0.289656
vn 0.795825 0.531753 -0.289656
vn 0.289748 0.814975 -0.501859
vn 0.289748 0.814975 -0.501859
vn 0.289748 0.814975 -0.501859
vn 0.289748 0.814975 -0.501859
vn -0.100629 0.814975 -0.570693
vn -0.100628 0.814975 -0.570693
vn -0.100628 0.814975 -0.570693
vn -0.100628 0.814975 -0.570693
vn -0.443920 0.814975 -0.372493
vn -0.443920 0.814975 -0.372493
vn -0.443920 0.814975 -0.372493
vn -0.443920 0.814975 -0.372493
vn -0.579497 0.814975 -0.000000
vn -0.579497 0.814975 -0.000000
vn -0.579497 0.814975 -0.000000
vn -0.579497 0.814975 -0.000000
vn -0.443920 0.814975 0.372493
vn -0.443920 0.814975 0.372493
vn -0.443920 0.814975 0.372493
vn -0.443920 0.814975 0.372493
vn -0.100629 0.814975 0.570693
vn -0.100629 0.814975 0.570692
vn -0.100629 0.814975 0.570693
vn -0.100629 0.814975 0.570693
vn 0.289748 0.814975 0.501859
vn 0.289748 0.814975 0.501859
vn 0.289748 0.814975 0.501859
vn 0.289748 0.814975 0.501859
vn 0.544549 0.814975 0.198199
vn 0.544549 0.814975 0.198199
vn 0.544549 0.814975 0.198199
vn 0.544549 0.814975 0.198199
vn 0.544549 0.814975 -0.198199
vn 0.544549 0.814975 -0.198199
vn 0.544549 0.814975 -0.198199
vn 0.544549 0.814975 -0.198199
vn 0.103545 -0.978322 -0.179345
vn 0.103545 -0.978322 -0.179345
vn 0.103545 -0.978322 -0.179345
vn -0.035961 -0.978322 -0.203943
vn -0.035961 -0.978322 -0.203943
vn -0.035961 -0.978322 -0.203943
vn -0.158640 -0.978322 -0.133114
vn -0.158640 -0.978322 -0.133114
vn -0.158640 -0.978322 -0.133114
vn -0.207089 -0.978322 0.000000
vn -0.207089 -0.978322 0.000000
vn -0.207089 -0.978322 0.000000
vn -0.158640 -0.978322 0.133114
vn -0.158640 -0.978322 0.133114
vn -0.158640 -0.978322 0.133114
vn -0.035961 -0.978322 0.203943
vn -0.035961 -0.978322 0.203943
vn -0.035961 -0.978322 0.203943
vn 0.103545 -0.978322 0.179345
vn 0.103545 -0.978322 0.179345
vn 0.103545 -0.978322 0.179345
vn 0.194600 -0.978322 0.070829
vn 0.194600 -0.978322 0.070829
vn 0.194600 -0.978322 0.070829
vn 0.194600 -0.978322 -0.070829
vn 0.194600 -0.978322 -0.070829
vn 0.194600 -0.978322 -0.070829
vn 0.103545 0.978322 -0.179345
vn 0.103545 0.978322 -0.179345
vn 0.103545 0.978322 -0.179345
vn -0.035961 0.978322 -0.203943
vn -0.035961 0.978322 -0.203943
vn -0.035961 0.978322 -0.203943
vn -0.158640 0.978322 -0.133114
vn -0.158640 0.978322 -0.133114
vn -0.158640 0.978322 -0.133114
vn -0.207089 0.978322 0.000000
vn -0.207089 0.978322 0.000000
vn -0.207089 0.978322 0.000000
vn -0.158640 0.978322 0.133114
vn -0.158640 0.978322 0.133114
vn -0.158640 0.978322 0.133114
vn -0.035961 0.978322 0.203943
vn -0.035961 0.978322 0.203943
vn -0.035961 0.978322 0.203943
vn 0.103545 0.978322 0.179345
vn 0.103545 0.978322 0.179345
vn 0.103545 0.978322 0.179345
vn 0.194600 0.978322 0.070829
vn 0.194600 0.978322 0.070829
vn 0.194600 0.978322 0.070829
vn 0.194600 0.978322 -0.070829
vn 0.194600 0.978322 -0.070829
vn 0.194600 0.978322 -0.070829
s off
g pSphere1
usemtl initialShadingGroup
f 1/1/1 2/2/2 11/12/3 10/11/4
f 2/2/5 3/3/6 12/13/7 11/12/8
f 3/3/9 4/4/10 13/14/11 12/13/12
f 4/4/13 5/5/14 14/15/15 13/14/16
f 5/5/17 6/6/18 15/16/19 14/15/20
f 6/6/21 7/7/22 16/17/23 15/16/24
f 7/7/25 8/8/26 17/18/27 16/17/28
f 8/8/29 9/9/30 18/19/31 17/18/32
f 9/9/33 1/10/34 10/20/35 18/19/36
f 10/11/37 11/12/38 20/22/39 19/21/40
f 11/12/41 12/13/42 21/23/43 20/22/44
f 12/13/45 13/14/46 22/24/47 21/23/48
f 13/14/49 14/15/50 23/25/51 22/24/52
f 14/15/53 15/16/54 24/26/55 23/25/56
f 15/16/57 16/17/58 25/27/59 24/26/60
f 16/17/61 17/18/62 26/28/63 25/27/64
f 17/18/65 18/19/66 27/29/67 26/28/68
f 18/19/69 10/20/70 19/30/71 27/29/72
f 19/21/73 20/22/74 29/32/75 28/31/76
f 20/22/77 21/23/78 30/33/79 29/32/80
f 21/23/81 22/24/82 31/34/83 30/33/84
f 22/24/85 23/25/86 32/35/87 31/34/88
f 23/25/89 24/26/90 33/36/91 32/35/92
f 24/26/93 25/27/94 34/37/95 33/36/96
f 25/27/97 26/28/98 35/38/99 34/37/100
f 26/28/101 27/29/102 36/39/103 35/38/104
f 27/29/105 19/30/106 28/40/107 36/39/108
f 28/31/109 29/32/110 38/42/111 37/41/112
f 29/32/113 30/33/114 39/43/115 38/42/116
f 30/33/117 31/34/118 40/44/119 39/43/120
f 31/34/121 32/35/122 41/45/123 40/44/124
f 32/35/125 33/36/126 42/46/127 41/45/128
f 33/36/129 34/37/130 43/47/131 42/46/132
f 34/37/133 35/38/134 44/48/135 43/47/136
f 35/38/137 36/39/138 45/49/139 44/48/140
f 36/39/141 28/40/142 37/50/143 45/49/144
f 37/41/145 38/42/146 47/52/147 46/51/148
f 38/42/149 39/43/150 48/53/151 47/52/152
f 39/43/153 40/44/154 49/54/155 48/53/156
f 40/44/157 41/45/158 50/55/159 49/54/160
f 41/45/161 42/46/162 51/56/163 50/55/164
f 42/46/165 43/47/166 52/57/167 51/56/168
f 43/47/169 44/48/170 53/58/171 52/57/172
f 44/48/173 45/49/174 54/59/175 53/58/176
f 45/49/177 37/50/178 46/60/179 54/59/180
f 46/51/181 47/52/182 56/62/183 55/61/184
f 47/52/185 48/53/186 57/63/187 56/62/188
f 48/53/189 49/54/190 58/64/191 57/63/192
f 49/54/193 50/55/194 59/65/195 58/64/196
f 50/55/197 51/56/198 60/66/199 59/65/200
f 51/56/201 52/57/202 61/67/203 60/66/204
f 52/57/205 53/58/206 62/68/207 61/67/208
f 53/58/209 54/59/210 63/69/211 62/68/212
f 54/59/213 46/60/214 55/70/215 63/69/216
f 2/2/217 1/1/218 64/71/219
f 3/3/220 2/2/221 64/72/222
f 4/4/223 3/3/224 64/73/225
f 5/5/226 4/4/227 64/74/228
f 6/6/229 5/5/230 64/75/231
f 7/7/232 6/6/233 64/76/234
f 8/8/235 7/7/236 64/77/237
f 9/9/238 8/8/239 64/78/240
f 1/10/241 9/9/242 64/79/243
f 55/61/244 56/62/245 65/80/246
f 56/62/247 57/63/248 65/81/249
f 57/63/250 58/64/251 65/82/252
f 58/64/253 59/65/254 65/83/255
f 59/65/256 60/66/257 65/84/258
f 60/66/259 61/67/260 65/85/261
f 61/67/262 62/68/263 65/86/264
f 62/68/265 63/69/266 65/87/267
f 63/69/268 55/70/269 65/88/270
