# This file uses centimeters as units for non-parametric coordinates.

mtllib dirL.mtl
g default
v 1.115641 0.182200 -0.059200
v 1.115641 0.154988 -0.112606
v 1.115641 0.112606 -0.154988
v 1.115641 0.059200 -0.182200
v 1.115641 0.000000 -0.191576
v 1.115641 -0.059200 -0.182200
v 1.115641 -0.112606 -0.154988
v 1.115641 -0.154988 -0.112606
v 1.115641 -0.182200 -0.059200
v 1.115641 -0.191576 0.000000
v 1.115641 -0.182200 0.059200
v 1.115641 -0.154988 0.112606
v 1.115641 -0.112606 0.154988
v 1.115641 -0.059200 0.182200
v 1.115641 0.000000 0.191576
v 1.115641 0.059200 0.182200
v 1.115641 0.112606 0.154988
v 1.115641 0.154988 0.112606
v 1.115641 0.182199 0.059200
v 1.115641 0.191576 0.000000
v -1.599884 0.182200 -0.059200
v -1.599882 0.154988 -0.112606
v -1.599882 0.112606 -0.154988
v -1.599882 0.059200 -0.182200
v -1.599882 0.000000 -0.191576
v -1.599882 -0.059200 -0.182200
v -1.599882 -0.112606 -0.154988
v -1.599882 -0.154988 -0.112606
v -1.599884 -0.182199 -0.059200
v -1.599882 -0.191576 0.000000
v -1.599884 -0.182199 0.059200
v -1.599882 -0.154988 0.112606
v -1.599882 -0.112606 0.154988
v -1.599882 -0.059200 0.182200
v -1.599882 0.000000 0.191576
v -1.599882 0.059200 0.182200
v -1.599882 0.112606 0.154988
v -1.599882 0.154988 0.112606
v -1.599882 0.182200 0.059200
v -1.599884 0.191576 0.000000
v -1.652845 0.368568 -0.119755
v -1.652845 0.313523 -0.227788
v -1.652847 0.227788 -0.313523
v -1.652845 0.119755 -0.368568
v -1.652847 0.000000 -0.387536
v -1.652847 -0.119755 -0.368568
v -1.652847 -0.227787 -0.313523
v -1.652845 -0.313523 -0.227787
v -1.652847 -0.368568 -0.119755
v -1.652847 -0.387536 0.000000
v -1.652847 -0.368568 0.119755
v -1.652845 -0.313523 0.227787
v -1.652847 -0.227787 0.313523
v -1.652847 -0.119755 0.368568
v -1.652847 0.000000 0.387535
v -1.652845 0.119755 0.368568
v -1.652847 0.227787 0.313523
v -1.652847 0.313523 0.227787
v -1.652847 0.368568 0.119755
v -1.652847 0.387535 0.000000
v 1.115641 0.000000 0.000000
v -2.755627 0.000000 0.000000
v -1.599882 -0.119755 0.368568
v -1.599884 -0.227788 0.313523
v -1.599884 -0.313523 0.227787
v -1.599884 -0.368568 0.119755
v -1.599882 -0.387536 0.000000
v -1.599884 -0.368568 -0.119755
v -1.599884 -0.313523 -0.227787
v -1.599882 -0.227788 -0.313523
v -1.599882 -0.119755 -0.368568
v -1.599882 0.000000 -0.387536
v -1.599884 0.119755 -0.368568
v -1.599882 0.227788 -0.313523
v -1.599884 0.313523 -0.227788
v -1.599882 0.368568 -0.119755
v -1.599884 0.387536 0.000000
v -1.599884 0.368568 0.119755
v -1.599882 0.313523 0.227787
v -1.599882 0.227787 0.313523
v -1.599884 0.119755 0.368568
v -1.599882 0.000000 0.387535
v -1.569845 0.154988 -0.112606
v -1.569845 0.182200 -0.059200
v -1.569845 0.191576 0.000000
v -1.569845 0.182199 0.059200
v -1.569845 0.154988 0.112606
v -1.569845 0.112606 0.154988
v -1.569845 0.059200 0.182200
v -1.569845 -0.000000 0.191576
v -1.569845 -0.059200 0.182200
v -1.569845 -0.112606 0.154988
v -1.569845 -0.154988 0.112606
v -1.569845 -0.182200 0.059200
v -1.569845 -0.191576 0.000000
v -1.569845 -0.182200 -0.059200
v -1.569845 -0.154988 -0.112606
v -1.569845 -0.112606 -0.154988
v -1.569845 -0.059200 -0.182200
v -1.569845 -0.000000 -0.191576
v -1.569845 0.059200 -0.182200
v -1.569845 0.112606 -0.154988
vt 0.375000 0.312500
vt 0.387500 0.312500
vt 0.387500 0.499671
vt 0.375000 0.499671
vt 0.400000 0.312500
vt 0.400000 0.499671
vt 0.412500 0.312500
vt 0.412500 0.499671
vt 0.425000 0.312500
vt 0.425000 0.499671
vt 0.437500 0.312500
vt 0.437500 0.499671
vt 0.450000 0.312500
vt 0.450000 0.499671
vt 0.462500 0.312500
vt 0.462500 0.499671
vt 0.475000 0.312500
vt 0.475000 0.499671
vt 0.487500 0.312500
vt 0.487500 0.499671
vt 0.500000 0.312500
vt 0.500000 0.499671
vt 0.512500 0.312500
vt 0.512500 0.499671
vt 0.525000 0.312500
vt 0.525000 0.499671
vt 0.537500 0.312500
vt 0.537500 0.499671
vt 0.550000 0.312500
vt 0.550000 0.499671
vt 0.562500 0.312500
vt 0.562500 0.499671
vt 0.575000 0.312500
vt 0.575000 0.499671
vt 0.587500 0.312500
vt 0.587500 0.499671
vt 0.600000 0.312500
vt 0.600000 0.499671
vt 0.612500 0.312500
vt 0.612500 0.499671
vt 0.625000 0.312500
vt 0.625000 0.499671
vt 0.375000 0.500470
vt 0.387500 0.500470
vt 0.387500 0.510445
vt 0.375000 0.510445
vt 0.400000 0.500470
vt 0.400000 0.510445
vt 0.412500 0.500470
vt 0.412500 0.510445
vt 0.425000 0.500470
vt 0.425000 0.510445
vt 0.437500 0.500470
vt 0.437500 0.510445
vt 0.450000 0.500470
vt 0.450000 0.510445
vt 0.462500 0.500470
vt 0.462500 0.510445
vt 0.475000 0.500470
vt 0.475000 0.510445
vt 0.487500 0.500470
vt 0.487500 0.510445
vt 0.500000 0.500470
vt 0.500000 0.510445
vt 0.512500 0.500470
vt 0.512500 0.510445
vt 0.525000 0.500470
vt 0.525000 0.510445
vt 0.537500 0.500470
vt 0.537500 0.510445
vt 0.550000 0.500470
vt 0.550000 0.510445
vt 0.562500 0.500470
vt 0.562500 0.510445
vt 0.575000 0.500470
vt 0.575000 0.510445
vt 0.587500 0.500470
vt 0.587500 0.510445
vt 0.600000 0.500470
vt 0.600000 0.510445
vt 0.612500 0.500470
vt 0.612500 0.510445
vt 0.625000 0.500470
vt 0.625000 0.510445
vt 0.626409 0.064408
vt 0.648603 0.107966
vt 0.500000 0.150000
vt 0.591842 0.029841
vt 0.548284 0.007647
vt 0.500000 -0.000000
vt 0.451716 0.007647
vt 0.408159 0.029841
vt 0.373591 0.064409
vt 0.351397 0.107966
vt 0.343750 0.156250
vt 0.351397 0.204534
vt 0.373591 0.248091
vt 0.408159 0.282659
vt 0.451716 0.304853
vt 0.500000 0.312500
vt 0.548284 0.304853
vt 0.591841 0.282659
vt 0.626409 0.248091
vt 0.648603 0.204534
vt 0.656250 0.156250
vt 0.648603 0.892034
vt 0.626409 0.935591
vt 0.500000 0.837500
vt 0.591841 0.970159
vt 0.548284 0.992353
vt 0.500000 1.000000
vt 0.451716 0.992353
vt 0.408159 0.970159
vt 0.373591 0.935591
vt 0.351397 0.892034
vt 0.343750 0.843750
vt 0.351397 0.795466
vt 0.373591 0.751909
vt 0.408159 0.717341
vt 0.451716 0.695147
vt 0.500000 0.687500
vt 0.548284 0.695147
vt 0.591842 0.717341
vt 0.626409 0.751908
vt 0.648603 0.795466
vt 0.656250 0.843750
vt 0.537500 0.688440
vt 0.525000 0.688440
vt 0.512500 0.688440
vt 0.500000 0.688440
vt 0.487500 0.688440
vt 0.475000 0.688440
vt 0.462500 0.688440
vt 0.450000 0.688440
vt 0.437500 0.688440
vt 0.425000 0.688440
vt 0.412500 0.688440
vt 0.400000 0.688440
vt 0.387500 0.688440
vt 0.375000 0.688440
vt 0.625000 0.688440
vt 0.612500 0.688440
vt 0.600000 0.688440
vt 0.587500 0.688440
vt 0.575000 0.688440
vt 0.562500 0.688440
vt 0.550000 0.688440
vn 0.000000 0.951057 -0.309017
vn 0.000000 0.809017 -0.587785
vn 0.000000 0.809017 -0.587785
vn 0.000000 0.951057 -0.309017
vn 0.000000 0.809017 -0.587785
vn 0.000000 0.587785 -0.809017
vn 0.000000 0.587785 -0.809017
vn 0.000000 0.809017 -0.587785
vn 0.000000 0.587785 -0.809017
vn 0.000000 0.309017 -0.951057
vn 0.000000 0.309017 -0.951057
vn 0.000000 0.587785 -0.809017
vn 0.000000 0.309017 -0.951057
vn 0.000000 0.000000 -1.000000
vn 0.000000 0.000000 -1.000000
vn 0.000000 0.309017 -0.951057
vn 0.000000 0.000000 -1.000000
vn 0.000000 -0.309017 -0.951057
vn 0.000000 -0.309017 -0.951057
vn 0.000000 0.000000 -1.000000
vn 0.000000 -0.309017 -0.951057
vn 0.000000 -0.587785 -0.809017
vn 0.000000 -0.587785 -0.809017
vn 0.000000 -0.309017 -0.951057
vn 0.000000 -0.587785 -0.809017
vn 0.000000 -0.809017 -0.587785
vn 0.000000 -0.809017 -0.587785
vn 0.000000 -0.587785 -0.809017
vn 0.000000 -0.809017 -0.587785
vn 0.000000 -0.951057 -0.309017
vn 0.000000 -0.951057 -0.309017
vn 0.000000 -0.809017 -0.587785
vn 0.000000 -0.951057 -0.309017
vn 0.000000 -1.000000 0.000000
vn 0.000000 -1.000000 0.000000
vn 0.000000 -0.951057 -0.309017
vn 0.000000 -1.000000 0.000000
vn 0.000000 -0.951057 0.309017
vn 0.000000 -0.951057 0.309017
vn 0.000000 -1.000000 0.000000
vn 0.000000 -0.951057 0.309017
vn 0.000000 -0.809017 0.587785
vn 0.000000 -0.809017 0.587785
vn 0.000000 -0.951057 0.309017
vn 0.000000 -0.809017 0.587785
vn 0.000000 -0.587785 0.809017
vn 0.000000 -0.587785 0.809017
vn 0.000000 -0.809017 0.587785
vn 0.000000 -0.587785 0.809017
vn 0.000000 -0.309017 0.951057
vn 0.000000 -0.309017 0.951057
vn 0.000000 -0.587785 0.809017
vn 0.000000 -0.309017 0.951057
vn 0.000000 0.000000 1.000000
vn 0.000000 0.000000 1.000000
vn 0.000000 -0.309017 0.951057
vn 0.000000 0.000000 1.000000
vn 0.000000 0.309018 0.951056
vn 0.000000 0.309018 0.951056
vn 0.000000 0.000000 1.000000
vn 0.000000 0.309018 0.951056
vn 0.000000 0.587785 0.809017
vn 0.000000 0.587785 0.809017
vn 0.000000 0.309018 0.951056
vn 0.000000 0.587785 0.809017
vn 0.000000 0.809017 0.587785
vn 0.000000 0.809017 0.587785
vn 0.000000 0.587785 0.809017
vn 0.000000 0.809017 0.587785
vn 0.000000 0.951057 0.309017
vn 0.000000 0.951057 0.309017
vn 0.000000 0.809017 0.587785
vn 0.000000 0.951057 0.309017
vn 0.000000 1.000000 0.000002
vn 0.000000 1.000000 0.000002
vn 0.000000 0.951057 0.309017
vn 0.000000 1.000000 0.000002
vn 0.000000 0.951057 -0.309017
vn 0.000000 0.951057 -0.309017
vn 0.000000 1.000000 0.000002
vn 0.995777 0.087316 -0.028370
vn 0.995777 0.074274 -0.053963
vn 0.927861 0.301704 -0.219201
vn 0.927860 0.354677 -0.115241
vn 0.995777 0.074274 -0.053963
vn 0.995777 0.053964 -0.074275
vn 0.927860 0.219202 -0.301706
vn 0.927861 0.301704 -0.219201
vn 0.995777 0.053964 -0.074275
vn 0.995777 0.028372 -0.087315
vn 0.927860 0.115243 -0.354676
vn 0.927860 0.219202 -0.301706
vn 0.995777 0.028372 -0.087315
vn 0.995777 -0.000001 -0.091809
vn 0.927860 -0.000001 -0.372929
vn 0.927860 0.115243 -0.354676
vn 0.995777 -0.000001 -0.091809
vn 0.995777 -0.028371 -0.087316
vn 0.927860 -0.115242 -0.354676
vn 0.927860 -0.000001 -0.372929
vn 0.995777 -0.028371 -0.087316
vn 0.995777 -0.053962 -0.074276
vn 0.927860 -0.219201 -0.301706
vn 0.927860 -0.115242 -0.354676
vn 0.995777 -0.053962 -0.074276
vn 0.995777 -0.074274 -0.053964
vn 0.927860 -0.301706 -0.219202
vn 0.927860 -0.219201 -0.301706
vn 0.995777 -0.074274 -0.053964
vn 0.995777 -0.087315 -0.028370
vn 0.927860 -0.354676 -0.115241
vn 0.927860 -0.301706 -0.219202
vn 0.995777 -0.087315 -0.028370
vn 0.995777 -0.091807 0.000000
vn 0.927860 -0.372928 0.000000
vn 0.927860 -0.354676 -0.115241
vn 0.995777 -0.091807 0.000000
vn 0.995777 -0.087315 0.028370
vn 0.927860 -0.354676 0.115241
vn 0.927860 -0.372928 0.000000
vn 0.995777 -0.087315 0.028370
vn 0.995777 -0.074276 0.053963
vn 0.927860 -0.301707 0.219202
vn 0.927860 -0.354676 0.115241
vn 0.995777 -0.074276 0.053963
vn 0.995777 -0.053962 0.074275
vn 0.927860 -0.219201 0.301706
vn 0.927860 -0.301707 0.219202
vn 0.995777 -0.053962 0.074275
vn 0.995777 -0.028368 0.087316
vn 0.927860 -0.115240 0.354677
vn 0.927860 -0.219201 0.301706
vn 0.995777 -0.028368 0.087316
vn 0.995777 -0.000001 0.091809
vn 0.927860 -0.000001 0.372929
vn 0.927860 -0.115240 0.354677
vn 0.995777 -0.000001 0.091809
vn 0.995777 0.028371 0.087315
vn 0.927860 0.115242 0.354676
vn 0.927860 -0.000001 0.372929
vn 0.995777 0.028371 0.087315
vn 0.995777 0.053965 0.074275
vn 0.927860 0.219203 0.301705
vn 0.927860 0.115242 0.354676
vn 0.995777 0.053965 0.074275
vn 0.995777 0.074274 0.053964
vn 0.927860 0.301705 0.219203
vn 0.927860 0.219203 0.301705
vn 0.995777 0.074274 0.053964
vn 0.995777 0.087315 0.028370
vn 0.927860 0.354676 0.115241
vn 0.927860 0.301705 0.219203
vn 0.995777 0.087315 0.028370
vn 0.995777 0.091810 -0.000001
vn 0.927860 0.372930 0.000000
vn 0.927860 0.354676 0.115241
vn 0.995777 0.091810 -0.000001
vn 0.995777 0.087316 -0.028370
vn 0.927860 0.354677 -0.115241
vn 0.927860 0.372930 0.000000
vn 1.000000 0.000000 0.000000
vn 1.000000 0.000000 0.000000
vn 1.000000 0.000000 0.000000
vn 1.000000 0.000000 0.000000
vn 1.000000 0.000000 0.000000
vn 1.000000 0.000000 0.000000
vn 1.000000 0.000000 0.000000
vn 1.000000 0.000000 0.000000
vn 1.000000 0.000000 0.000000
vn 1.000000 0.000000 0.000000
vn 1.000000 0.000000 0.000000
vn 1.000000 0.000000 0.000000
vn 1.000000 0.000000 0.000000
vn 1.000000 0.000000 0.000000
vn 1.000000 0.000000 0.000000
vn 1.000000 0.000000 0.000000
vn 1.000000 0.000000 0.000000
vn 1.000000 0.000000 0.000000
vn 1.000000 0.000000 0.000000
vn 1.000000 0.000000 0.000000
vn 1.000000 0.000000 0.000000
vn 1.000000 0.000000 0.000000
vn 1.000000 0.000000 0.000000
vn 1.000000 0.000000 0.000000
vn 1.000000 0.000000 0.000000
vn 1.000000 0.000000 0.000000
vn 1.000000 0.000000 0.000000
vn 1.000000 0.000000 0.000000
vn 1.000000 0.000000 0.000000
vn 1.000000 0.000000 0.000000
vn 1.000000 0.000000 0.000000
vn 1.000000 0.000000 0.000000
vn 1.000000 0.000000 0.000000
vn 1.000000 0.000000 0.000000
vn 1.000000 0.000000 0.000000
vn 1.000000 0.000000 0.000000
vn 1.000000 0.000000 0.000000
vn 1.000000 0.000000 0.000000
vn 1.000000 0.000000 0.000000
vn 1.000000 0.000000 0.000000
vn 1.000000 0.000000 0.000000
vn 1.000000 0.000000 0.000000
vn 1.000000 0.000000 0.000000
vn 1.000000 0.000000 0.000000
vn 1.000000 0.000000 0.000000
vn 1.000000 0.000000 0.000000
vn 1.000000 0.000000 0.000000
vn 1.000000 0.000000 0.000000
vn 1.000000 0.000000 0.000000
vn 1.000000 0.000000 0.000000
vn 1.000000 0.000000 0.000000
vn 1.000000 0.000000 0.000000
vn 1.000000 0.000000 0.000000
vn 1.000000 0.000000 0.000000
vn 1.000000 0.000000 0.000000
vn 1.000000 0.000000 0.000000
vn 1.000000 0.000000 0.000000
vn 1.000000 0.000000 0.000000
vn 1.000000 0.000000 0.000000
vn 1.000000 0.000000 0.000000
vn -0.331541 0.897265 -0.291539
vn -0.331541 0.763260 -0.554541
vn -1.000000 0.000000 -0.000003
vn -0.331541 0.763260 -0.554541
vn -0.331541 0.554541 -0.763260
vn -1.000000 0.000000 -0.000003
vn -0.331541 0.554541 -0.763260
vn -0.331541 0.291539 -0.897266
vn -1.000000 0.000000 -0.000003
vn -0.331541 0.291539 -0.897266
vn -0.331541 0.000000 -0.943441
vn -1.000000 0.000000 -0.000003
vn -0.331541 0.000000 -0.943441
vn -0.331541 -0.291540 -0.897265
vn -1.000000 0.000000 -0.000003
vn -0.331541 -0.291540 -0.897265
vn -0.331541 -0.554541 -0.763259
vn -1.000000 0.000000 -0.000003
vn -0.331541 -0.554541 -0.763259
vn -0.331541 -0.763259 -0.554541
vn -1.000000 0.000000 -0.000003
vn -0.331541 -0.763259 -0.554541
vn -0.331541 -0.897265 -0.291539
vn -1.000000 0.000000 -0.000003
vn -0.331541 -0.897265 -0.291539
vn -0.331541 -0.943441 0.000000
vn -1.000000 0.000000 -0.000003
vn -0.331541 -0.943441 0.000000
vn -0.331541 -0.897266 0.291539
vn -1.000000 0.000000 -0.000003
vn -0.331541 -0.897266 0.291539
vn -0.331541 -0.763259 0.554541
vn -1.000000 0.000000 -0.000003
vn -0.331541 -0.763259 0.554541
vn -0.331541 -0.554541 0.763260
vn -1.000000 0.000000 -0.000003
vn -0.331541 -0.554541 0.763260
vn -0.331541 -0.291539 0.897266
vn -1.000000 0.000000 -0.000003
vn -0.331541 -0.291539 0.897266
vn -0.331541 0.000000 0.943441
vn -1.000000 0.000000 -0.000003
vn -0.331541 0.000000 0.943441
vn -0.331541 0.291539 0.897265
vn -1.000000 0.000000 -0.000003
vn -0.331541 0.291539 0.897265
vn -0.331541 0.554541 0.763260
vn -1.000000 0.000000 -0.000003
vn -0.331541 0.554541 0.763260
vn -0.331541 0.763259 0.554541
vn -1.000000 0.000000 -0.000003
vn -0.331541 0.763259 0.554541
vn -0.331541 0.897265 0.291539
vn -1.000000 0.000000 -0.000003
vn -0.331541 0.897265 0.291539
vn -0.331541 0.943441 0.000000
vn -1.000000 0.000000 -0.000003
vn -0.331541 0.943441 0.000000
vn -0.331541 0.897265 -0.291539
vn -1.000000 0.000000 -0.000003
vn 0.927860 -0.219201 0.301706
vn 0.927860 -0.115240 0.354677
vn -0.000001 -0.309018 0.951056
vn -0.000001 -0.587786 0.809017
vn 0.927860 -0.301707 0.219202
vn 0.927860 -0.219201 0.301706
vn -0.000001 -0.587786 0.809017
vn -0.000001 -0.809018 0.587784
vn 0.927860 -0.354676 0.115241
vn 0.927860 -0.301707 0.219202
vn -0.000001 -0.809018 0.587784
vn 0.000000 -0.951057 0.309016
vn 0.927860 -0.372928 0.000000
vn 0.927860 -0.354676 0.115241
vn 0.000000 -0.951057 0.309016
vn 0.000000 -1.000000 0.000000
vn 0.927860 -0.354676 -0.115241
vn 0.927860 -0.372928 0.000000
vn 0.000000 -1.000000 0.000000
vn 0.000000 -0.951057 -0.309016
vn 0.927860 -0.301706 -0.219202
vn 0.927860 -0.354676 -0.115241
vn 0.000000 -0.951057 -0.309016
vn -0.000001 -0.809018 -0.587784
vn 0.927860 -0.219201 -0.301706
vn 0.927860 -0.301706 -0.219202
vn -0.000001 -0.809018 -0.587784
vn -0.000001 -0.587787 -0.809016
vn 0.927860 -0.115242 -0.354676
vn 0.927860 -0.219201 -0.301706
vn -0.000001 -0.587787 -0.809016
vn -0.000001 -0.309018 -0.951056
vn 0.927860 -0.000001 -0.372929
vn 0.927860 -0.115242 -0.354676
vn -0.000001 -0.309018 -0.951056
vn 0.000000 0.000000 -1.000000
vn 0.927860 0.115243 -0.354676
vn 0.927860 -0.000001 -0.372929
vn 0.000000 0.000000 -1.000000
vn 0.000000 0.309018 -0.951056
vn 0.927860 0.219202 -0.301706
vn 0.927860 0.115243 -0.354676
vn 0.000000 0.309018 -0.951056
vn 0.000000 0.587786 -0.809016
vn 0.927861 0.301704 -0.219201
vn 0.927860 0.219202 -0.301706
vn 0.000000 0.587786 -0.809016
vn 0.000000 0.809017 -0.587785
vn 0.927860 0.354677 -0.115241
vn 0.927861 0.301704 -0.219201
vn 0.000000 0.809017 -0.587785
vn -0.000001 0.951057 -0.309017
vn 0.927860 0.372930 0.000000
vn 0.927860 0.354677 -0.115241
vn -0.000001 0.951057 -0.309017
vn 0.000000 1.000000 0.000001
vn 0.927860 0.354676 0.115241
vn 0.927860 0.372930 0.000000
vn 0.000000 1.000000 0.000001
vn 0.000001 0.951057 0.309017
vn 0.927860 0.301705 0.219203
vn 0.927860 0.354676 0.115241
vn 0.000001 0.951057 0.309017
vn 0.000001 0.809017 0.587785
vn 0.927860 0.219203 0.301705
vn 0.927860 0.301705 0.219203
vn 0.000001 0.809017 0.587785
vn 0.000000 0.587786 0.809017
vn 0.927860 0.115242 0.354676
vn 0.927860 0.219203 0.301705
vn 0.000000 0.587786 0.809017
vn 0.000000 0.309018 0.951056
vn 0.927860 -0.000001 0.372929
vn 0.927860 0.115242 0.354676
vn 0.000000 0.309018 0.951056
vn 0.000000 0.000000 1.000000
vn 0.927860 -0.115240 0.354677
vn 0.927860 -0.000001 0.372929
vn 0.000000 0.000000 1.000000
vn -0.000001 -0.309018 0.951056
vn 0.000000 0.951057 -0.309017
vn 0.000000 0.809017 -0.587785
vn 0.995777 0.074274 -0.053963
vn 0.995777 0.087316 -0.028370
vn 0.000000 1.000000 0.000002
vn 0.000000 0.951057 -0.309017
vn 0.995777 0.087316 -0.028370
vn 0.995777 0.091810 -0.000001
vn 0.000000 0.951057 0.309017
vn 0.000000 1.000000 0.000002
vn 0.995777 0.091810 -0.000001
vn 0.995777 0.087315 0.028370
vn 0.000000 0.809017 0.587785
vn 0.000000 0.951057 0.309017
vn 0.995777 0.087315 0.028370
vn 0.995777 0.074274 0.053964
vn 0.000000 0.587785 0.809017
vn 0.000000 0.809017 0.587785
vn 0.995777 0.074274 0.053964
vn 0.995777 0.053965 0.074275
vn 0.000000 0.309018 0.951056
vn 0.000000 0.587785 0.809017
vn 0.995777 0.053965 0.074275
vn 0.995777 0.028371 0.087315
vn 0.000000 0.000000 1.000000
vn 0.000000 0.309018 0.951056
vn 0.995777 0.028371 0.087315
vn 0.995777 -0.000001 0.091809
vn 0.000000 -0.309017 0.951057
vn 0.000000 0.000000 1.000000
vn 0.995777 -0.000001 0.091809
vn 0.995777 -0.028368 0.087316
vn 0.000000 -0.587785 0.809017
vn 0.000000 -0.309017 0.951057
vn 0.995777 -0.028368 0.087316
vn 0.995777 -0.053962 0.074275
vn 0.000000 -0.809017 0.587785
vn 0.000000 -0.587785 0.809017
vn 0.995777 -0.053962 0.074275
vn 0.995777 -0.074276 0.053963
vn 0.000000 -0.951057 0.309017
vn 0.000000 -0.809017 0.587785
vn 0.995777 -0.074276 0.053963
vn 0.995777 -0.087315 0.028370
vn 0.000000 -1.000000 0.000000
vn 0.000000 -0.951057 0.309017
vn 0.995777 -0.087315 0.028370
vn 0.995777 -0.091807 0.000000
vn 0.000000 -0.951057 -0.309017
vn 0.000000 -1.000000 0.000000
vn 0.995777 -0.091807 0.000000
vn 0.995777 -0.087315 -0.028370
vn 0.000000 -0.809017 -0.587785
vn 0.000000 -0.951057 -0.309017
vn 0.995777 -0.087315 -0.028370
vn 0.995777 -0.074274 -0.053964
vn 0.000000 -0.587785 -0.809017
vn 0.000000 -0.809017 -0.587785
vn 0.995777 -0.074274 -0.053964
vn 0.995777 -0.053962 -0.074276
vn 0.000000 -0.309017 -0.951057
vn 0.000000 -0.587785 -0.809017
vn 0.995777 -0.053962 -0.074276
vn 0.995777 -0.028371 -0.087316
vn 0.000000 0.000000 -1.000000
vn 0.000000 -0.309017 -0.951057
vn 0.995777 -0.028371 -0.087316
vn 0.995777 -0.000001 -0.091809
vn 0.000000 0.309017 -0.951057
vn 0.000000 0.000000 -1.000000
vn 0.995777 -0.000001 -0.091809
vn 0.995777 0.028372 -0.087315
vn 0.000000 0.587785 -0.809017
vn 0.000000 0.309017 -0.951057
vn 0.995777 0.028372 -0.087315
vn 0.995777 0.053964 -0.074275
vn 0.000000 0.809017 -0.587785
vn 0.000000 0.587785 -0.809017
vn 0.995777 0.053964 -0.074275
vn 0.995777 0.074274 -0.053963
s off
g pCylinder1
usemtl _initialShadingGroup
f 1/1/1 2/2/2 83/3/3 84/4/4
f 2/2/5 3/5/6 102/6/7 83/3/8
f 3/5/9 4/7/10 101/8/11 102/6/12
f 4/7/13 5/9/14 100/10/15 101/8/16
f 5/9/17 6/11/18 99/12/19 100/10/20
f 6/11/21 7/13/22 98/14/23 99/12/24
f 7/13/25 8/15/26 97/16/27 98/14/28
f 8/15/29 9/17/30 96/18/31 97/16/32
f 9/17/33 10/19/34 95/20/35 96/18/36
f 10/19/37 11/21/38 94/22/39 95/20/40
f 11/21/41 12/23/42 93/24/43 94/22/44
f 12/23/45 13/25/46 92/26/47 93/24/48
f 13/25/49 14/27/50 91/28/51 92/26/52
f 14/27/53 15/29/54 90/30/55 91/28/56
f 15/29/57 16/31/58 89/32/59 90/30/60
f 16/31/61 17/33/62 88/34/63 89/32/64
f 17/33/65 18/35/66 87/36/67 88/34/68
f 18/35/69 19/37/70 86/38/71 87/36/72
f 19/37/73 20/39/74 85/40/75 86/38/76
f 20/39/77 1/41/78 84/42/79 85/40/80
f 21/43/81 22/44/82 75/45/83 76/46/84
f 22/44/85 23/47/86 74/48/87 75/45/88
f 23/47/89 24/49/90 73/50/91 74/48/92
f 24/49/93 25/51/94 72/52/95 73/50/96
f 25/51/97 26/53/98 71/54/99 72/52/100
f 26/53/101 27/55/102 70/56/103 71/54/104
f 27/55/105 28/57/106 69/58/107 70/56/108
f 28/57/109 29/59/110 68/60/111 69/58/112
f 29/59/113 30/61/114 67/62/115 68/60/116
f 30/61/117 31/63/118 66/64/119 67/62/120
f 31/63/121 32/65/122 65/66/123 66/64/124
f 32/65/125 33/67/126 64/68/127 65/66/128
f 33/67/129 34/69/130 63/70/131 64/68/132
f 34/69/133 35/71/134 82/72/135 63/70/136
f 35/71/137 36/73/138 81/74/139 82/72/140
f 36/73/141 37/75/142 80/76/143 81/74/144
f 37/75/145 38/77/146 79/78/147 80/76/148
f 38/77/149 39/79/150 78/80/151 79/78/152
f 39/79/153 40/81/154 77/82/155 78/80/156
f 40/81/157 21/83/158 76/84/159 77/82/160
f 2/85/161 1/86/162 61/87/163
f 3/88/164 2/85/165 61/87/166
f 4/89/167 3/88/168 61/87/169
f 5/90/170 4/89/171 61/87/172
f 6/91/173 5/90/174 61/87/175
f 7/92/176 6/91/177 61/87/178
f 8/93/179 7/92/180 61/87/181
f 9/94/182 8/93/183 61/87/184
f 10/95/185 9/94/186 61/87/187
f 11/96/188 10/95/189 61/87/190
f 12/97/191 11/96/192 61/87/193
f 13/98/194 12/97/195 61/87/196
f 14/99/197 13/98/198 61/87/199
f 15/100/200 14/99/201 61/87/202
f 16/101/203 15/100/204 61/87/205
f 17/102/206 16/101/207 61/87/208
f 18/103/209 17/102/210 61/87/211
f 19/104/212 18/103/213 61/87/214
f 20/105/215 19/104/216 61/87/217
f 1/86/218 20/105/219 61/87/220
f 41/106/221 42/107/222 62/108/223
f 42/107/224 43/109/225 62/108/226
f 43/109/227 44/110/228 62/108/229
f 44/110/230 45/111/231 62/108/232
f 45/111/233 46/112/234 62/108/235
f 46/112/236 47/113/237 62/108/238
f 47/113/239 48/114/240 62/108/241
f 48/114/242 49/115/243 62/108/244
f 49/115/245 50/116/246 62/108/247
f 50/116/248 51/117/249 62/108/250
f 51/117/251 52/118/252 62/108/253
f 52/118/254 53/119/255 62/108/256
f 53/119/257 54/120/258 62/108/259
f 54/120/260 55/121/261 62/108/262
f 55/121/263 56/122/264 62/108/265
f 56/122/266 57/123/267 62/108/268
f 57/123/269 58/124/270 62/108/271
f 58/124/272 59/125/273 62/108/274
f 59/125/275 60/126/276 62/108/277
f 60/126/278 41/106/279 62/108/280
f 64/68/281 63/70/282 54/127/283 53/128/284
f 65/66/285 64/68/286 53/128/287 52/129/288
f 66/64/289 65/66/290 52/129/291 51/130/292
f 67/62/293 66/64/294 51/130/295 50/131/296
f 68/60/297 67/62/298 50/131/299 49/132/300
f 69/58/301 68/60/302 49/132/303 48/133/304
f 70/56/305 69/58/306 48/133/307 47/134/308
f 71/54/309 70/56/310 47/134/311 46/135/312
f 72/52/313 71/54/314 46/135/315 45/136/316
f 73/50/317 72/52/318 45/136/319 44/137/320
f 74/48/321 73/50/322 44/137/323 43/138/324
f 75/45/325 74/48/326 43/138/327 42/139/328
f 76/46/329 75/45/330 42/139/331 41/140/332
f 77/82/333 76/84/334 41/141/335 60/142/336
f 78/80/337 77/82/338 60/142/339 59/143/340
f 79/78/341 78/80/342 59/143/343 58/144/344
f 80/76/345 79/78/346 58/144/347 57/145/348
f 81/74/349 80/76/350 57/145/351 56/146/352
f 82/72/353 81/74/354 56/146/355 55/147/356
f 63/70/357 82/72/358 55/147/359 54/127/360
f 84/4/361 83/3/362 22/44/363 21/43/364
f 85/40/365 84/42/366 21/83/367 40/81/368
f 86/38/369 85/40/370 40/81/371 39/79/372
f 87/36/373 86/38/374 39/79/375 38/77/376
f 88/34/377 87/36/378 38/77/379 37/75/380
f 89/32/381 88/34/382 37/75/383 36/73/384
f 90/30/385 89/32/386 36/73/387 35/71/388
f 91/28/389 90/30/390 35/71/391 34/69/392
f 92/26/393 91/28/394 34/69/395 33/67/396
f 93/24/397 92/26/398 33/67/399 32/65/400
f 94/22/401 93/24/402 32/65/403 31/63/404
f 95/20/405 94/22/406 31/63/407 30/61/408
f 96/18/409 95/20/410 30/61/411 29/59/412
f 97/16/413 96/18/414 29/59/415 28/57/416
f 98/14/417 97/16/418 28/57/419 27/55/420
f 99/12/421 98/14/422 27/55/423 26/53/424
f 100/10/425 99/12/426 26/53/427 25/51/428
f 101/8/429 100/10/430 25/51/431 24/49/432
f 102/6/433 101/8/434 24/49/435 23/47/436
f 83/3/437 102/6/438 23/47/439 22/44/440
